PathFileType	4	(X/Y/Z)	c:/Users/goper/Files/vsCode/490R/osim_files/C10/C10_Slow_05.trc
DataRate	CameraRate	NumFrames	NumMarkers	Units                	OrigDataRate	OrigDataStartFrame	OrigNumFrames
250.00	250.00	8	36	mm	250.0	1450	2319
                Frame#	Time	LPSIS			LASIS			LTH1			LTH2			LTH3			LTH4			LLFE			LMFE			LSH1			LSH2			LSH3			LSH4			LLMAL			LMMAL			LCAL			LMTP5			LTOE			LMTP1			RPSIS			RASIS			RTH1			RTH2			RTH3			RTH4			RLFE			RMFE			RSH1			RSH2			RSH3			RSH4			RLMAL			RMMAL			RCAL			RMTP1			RTOE			RMTP5		
		X1	Y1	Z1	X2	Y2	Z2	X3	Y3	Z3	X4	Y4	Z4	X5	Y5	Z5	X6	Y6	Z6	X7	Y7	Z7	X8	Y8	Z8	X9	Y9	Z9	X10	Y10	Z10	X11	Y11	Z11	X12	Y12	Z12	X13	Y13	Z13	X14	Y14	Z14	X15	Y15	Z15	X16	Y16	Z16	X17	Y17	Z17	X18	Y18	Z18	X19	Y19	Z19	X20	Y20	Z20	X21	Y21	Z21	X22	Y22	Z22	X23	Y23	Z23	X24	Y24	Z24	X25	Y25	Z25	X26	Y26	Z26	X27	Y27	Z27	X28	Y28	Z28	X29	Y29	Z29	X30	Y30	Z30	X31	Y31	Z31	X32	Y32	Z32	X33	Y33	Z33	X34	Y34	Z34	X35	Y35	Z35	X36	Y36	Z36

1450	5.79600	-2075.72803	994.56464	237.15855	-2240.29736	1004.02930	379.95541	-2245.57690	767.83301	421.23615	-2263.72852	724.66687	413.61917	-2302.83081	788.92303	402.98257	-2312.87646	744.41223	395.68326	0.00000	0.00000	0.00000	-2345.19067	497.62183	325.84219	-2297.63208	403.24515	341.92346	-2303.96997	356.42157	343.35452	-2360.60596	406.15707	325.70139	-2353.01929	358.98981	325.38309	-2322.25513	88.39842	289.70181	0.00000	0.00000	0.00000	-2253.67725	42.44324	249.80223	-2433.43457	32.14891	298.12347	-2478.79761	57.08944	232.17137	-2438.13916	31.33606	190.77959	-2082.88477	995.91309	154.30948	-2246.65845	976.68176	45.57988	-2150.38013	710.86493	9.80683	-2160.59351	667.58160	10.34413	-2202.77539	716.46814	5.64813	-2213.78198	672.95679	5.11114	-2173.72876	448.05740	51.65837	-2210.83813	428.75800	160.99219	-2062.54272	436.11502	56.76296	-2031.57654	405.30002	56.50469	-2102.10742	383.21780	51.58106	-2064.21973	364.48441	47.17486	-1841.98108	231.20076	106.48756	-1854.41406	198.41670	183.78061	-1783.81311	260.78134	155.26506	-1845.38745	79.43239	173.90668	-1870.17163	60.47064	133.21765	-1828.67859	98.14874	74.36433
1451	5.80000	-2080.24951	997.19452	237.42719	-2245.00317	1005.18951	380.01224	-2249.08228	768.63068	421.53186	-2267.05615	725.42792	413.91623	-2306.47046	789.50159	403.18710	-2316.56226	745.12531	395.88873	0.00000	0.00000	0.00000	-2346.03296	497.42294	326.49841	-2298.09180	403.30511	342.38110	-2304.20166	356.47913	343.79959	-2360.99609	405.87906	326.36304	-2353.32227	358.82590	325.87967	-2322.23706	88.36977	289.84702	0.00000	0.00000	0.00000	-2253.60693	42.46624	249.81961	-2433.36890	32.07135	298.18027	-2478.74609	57.10783	232.20770	-2438.13672	31.35991	190.78197	-2086.61255	996.21790	154.78600	-2250.40039	977.44714	45.65170	-2156.90210	710.72266	10.18038	-2167.55933	667.66174	10.45275	-2207.79419	716.77118	6.67376	-2220.68188	673.69940	5.18638	-2183.78662	448.39780	51.70789	-2228.31592	432.97733	159.72758	-2073.02222	437.09122	57.03067	-2041.85791	406.55194	56.70406	-2112.33862	383.97739	52.00948	-2074.28516	365.44199	47.57379	-1850.89783	234.79718	107.74031	-1863.07898	201.52995	184.95091	-1793.57129	264.52094	156.76796	-1853.51990	82.38467	173.68356	-1878.28845	63.51439	132.82393	-1836.86169	102.25571	74.29492
1452	5.80400	-2084.18066	996.51294	237.74747	-2249.58057	1006.23669	380.04523	-2252.75977	769.60345	421.75101	-2270.38892	726.22351	414.28812	-2310.11890	790.05945	403.31287	-2320.17114	745.82928	396.10562	0.00000	0.00000	0.00000	-2346.80322	497.22238	327.22723	-2298.53687	403.38898	342.88300	-2304.39575	356.48871	344.21866	-2361.53882	405.72818	326.98975	-2353.61450	358.75159	326.43402	-2322.17773	88.31142	289.98428	0.00000	0.00000	0.00000	-2253.56274	42.45515	249.88187	-2433.35303	32.03743	298.16974	-2478.69824	57.12985	232.21829	-2438.12842	31.36492	190.77406	-2091.04419	996.75739	155.39958	-2254.11133	978.18317	45.70514	-2163.41040	710.65509	10.52708	-2174.54590	667.78369	10.57319	-2212.99805	717.18201	7.59938	-2227.61255	674.50275	5.19545	-2193.70703	448.86960	51.73220	-2238.60010	433.77594	160.24564	-2083.49048	438.16147	57.34629	-2052.18335	407.79456	57.03653	-2122.60669	384.91162	52.55611	-2084.35962	366.47427	48.13834	-1860.12756	238.21536	108.98982	-1871.82104	204.63261	186.14087	-1802.87354	267.59558	158.50713	-1862.45947	85.18506	173.40498	-1887.04944	66.60186	132.45775	-1845.73926	106.23592	74.20082
1453	5.80800	-2088.72510	998.66522	238.04065	-2254.21167	1007.25006	380.06100	-2258.32178	771.25226	421.96826	-2273.71826	726.88257	414.69379	-2313.76147	790.55731	403.44940	-2323.67871	746.43134	396.44171	0.00000	0.00000	0.00000	-2347.47803	496.97641	327.95908	-2298.94092	403.46826	343.38855	-2304.68115	356.54697	344.70483	-2362.07471	405.62076	327.56122	-2353.86475	358.56671	326.95285	-2322.16943	88.25532	290.11124	0.00000	0.00000	0.00000	-2253.51147	42.46761	249.92493	-2433.33398	31.99978	298.16666	-2478.67041	57.13272	232.26051	-2438.12720	31.38918	190.80940	-2094.86230	996.90961	155.93030	-2257.71045	978.83044	45.65675	-2169.90747	710.65491	10.84751	-2181.46655	668.04645	10.65648	-2218.47729	717.71228	8.38758	-2234.40161	675.41022	5.19447	-2203.49609	449.51627	51.77042	-2248.88232	434.79376	160.74362	-2093.99683	439.33987	57.73742	-2062.49292	409.16220	57.42497	-2132.89453	385.88596	53.17113	-2094.44092	367.62512	48.73129	-1869.29688	241.46056	110.23435	-1881.15198	207.38591	187.08516	-1811.82166	270.21948	160.32857	-1872.04272	87.69839	173.18307	-1896.58496	69.61950	132.01184	-1855.24683	109.98473	74.19959
1454	5.81200	-2092.85449	1000.50861	238.30559	-2259.03540	1008.24805	380.05371	0.00000	0.00000	0.00000	-2277.04980	727.62970	415.10544	-2317.34180	791.02350	403.63260	-2327.30591	747.07147	396.69287	0.00000	0.00000	0.00000	-2348.16528	496.84750	328.61874	-2299.39917	403.57214	343.91928	-2305.01660	356.67868	345.21994	-2362.57422	405.54758	328.14801	-2354.11279	358.39972	327.56345	-2322.17212	88.22684	290.21225	0.00000	0.00000	0.00000	-2253.51514	42.50478	249.96008	-2433.38013	32.02326	298.15100	-2478.67603	57.20226	232.29932	-2438.07153	31.38883	190.84482	-2098.98486	997.54016	156.43286	-2261.31055	979.51068	45.53356	-2176.39600	710.71497	11.14228	-2188.34985	668.35419	10.71295	-2224.32324	718.37439	9.00095	-2241.22729	676.33081	5.20031	-2213.58691	450.24448	51.87782	-2259.19263	435.95157	161.26138	-2104.48438	440.58853	58.23884	-2072.76514	410.62881	57.92824	-2141.91846	385.71951	54.02929	-2104.53687	368.82291	49.30542	-1878.55420	244.54214	111.49911	-1890.37415	210.18033	188.15408	-1820.75171	272.37439	162.02461	-1882.31079	89.90715	172.83585	-1906.69263	72.35482	131.49965	-1865.06506	113.41350	74.20332
1455	5.81600	-2097.22339	1001.74561	238.58748	-2263.73999	1009.19818	379.99115	0.00000	0.00000	0.00000	0.00000	0.00000	0.00000	-2320.76343	791.47333	403.82416	-2335.75781	748.55811	395.15570	0.00000	0.00000	0.00000	-2348.86304	496.70093	329.29996	-2299.91309	403.68753	344.44824	-2305.43408	356.84619	345.74399	-2363.09619	405.46298	328.71304	-2354.47876	358.31680	328.09781	-2322.17139	88.20285	290.30090	0.00000	0.00000	0.00000	-2253.48340	42.53358	249.98718	-2433.42041	32.09795	298.15805	-2478.67261	57.22801	232.34424	-2443.57715	34.70467	190.09584	-2102.69458	997.91772	156.95848	-2264.81592	980.07788	45.37275	-2182.87793	710.82776	11.41199	-2195.28394	668.65570	10.75367	-2230.62549	719.18018	9.40209	-2248.04565	677.26141	5.22420	-2223.59375	451.00314	51.92245	-2269.29590	437.12866	161.80388	-2114.99609	441.86423	58.78329	-2083.09375	412.11026	58.47306	-2152.33423	387.01370	54.59166	-2114.61450	370.09351	49.93960	-1887.86108	247.32118	112.72393	-1900.51025	212.20168	188.89713	-1829.88904	274.16510	163.74014	-1892.98669	91.86620	172.61185	-1917.37329	74.87871	130.92435	-1875.22961	116.46931	74.21897
1456	5.82000	-2101.49072	1003.03192	238.93819	-2268.36157	1010.01044	379.97690	0.00000	0.00000	0.00000	0.00000	0.00000	0.00000	-2324.31836	791.90472	404.08536	-2339.42920	749.15503	395.47250	0.00000	0.00000	0.00000	-2349.58423	496.60315	329.97049	-2300.54102	403.82181	345.02161	-2305.72852	356.92368	346.33160	-2363.59204	405.39737	329.19489	-2354.91602	358.29547	328.59912	-2322.18384	88.19732	290.40781	0.00000	0.00000	0.00000	-2253.46948	42.54910	250.04024	-2433.45337	32.13673	298.17133	-2478.66577	57.22276	232.36769	-2443.58105	34.73519	190.11659	-2106.86353	998.56781	157.45020	-2268.27563	980.66962	45.17611	-2189.35718	710.98608	11.65724	-2202.23438	669.06818	10.83256	-2237.47583	720.14172	9.55358	-2254.84644	678.34174	5.25639	-2233.73755	451.85309	51.99181	-2279.55322	438.55692	162.24779	-2125.52026	443.20419	59.44930	-2093.50439	413.57693	59.09170	-2162.74097	388.38348	55.07227	-2124.80542	371.43378	50.50978	-1897.47473	249.78290	113.89413	-1910.57312	214.26813	189.78696	-1839.25879	275.65091	165.43602	-1904.28564	93.67920	172.27870	-1928.47424	77.15313	130.38399	-1885.63708	119.18223	74.29896
1457	5.82400	-2105.22046	1002.39539	239.10448	-2273.20972	1010.83667	379.92706	0.00000	0.00000	0.00000	0.00000	0.00000	0.00000	-2327.79297	792.26465	404.33035	-2342.95605	749.65399	395.71414	0.00000	0.00000	0.00000	-2350.32715	496.48257	330.58948	-2301.13232	403.87238	345.61111	-2306.24268	357.00183	346.89508	-2364.20044	405.36279	329.68665	-2355.45752	358.34763	329.10980	-2322.17358	88.15299	290.51657	0.00000	0.00000	0.00000	-2253.40430	42.57646	250.02505	-2433.60913	32.31021	298.42938	-2477.54199	56.74550	233.72279	-2438.11133	31.41533	190.87450	-2110.54272	999.18018	157.97934	-2271.68506	981.18469	44.96444	-2195.83496	711.18262	11.87863	-2209.19751	669.46497	10.88965	-2244.96411	721.27100	9.41802	-2261.04736	679.45178	5.13937	-2243.91162	452.73129	52.05670	-2289.65405	439.98105	162.74480	-2135.96338	444.56937	60.07868	-2103.76611	415.08102	59.75201	-2170.79004	385.77231	60.88614	-2134.73877	372.99982	51.12030	-1907.18311	252.13486	114.82816	-1920.48401	216.25783	190.80052	-1848.82166	276.77286	167.00296	-1915.81616	95.25751	172.08881	-1939.95776	79.21127	129.93370	-1896.32788	121.45683	74.42183
